/* XPM */
static char *cedef7a505d3415f84a3b6f5dfc35441w6yShqL960OJYB5z[] = {
/* columns rows colors chars-per-pixel */
"32 32 2 1 ",
"  c None",
". c white",
/* pixels */
"                                ",
"                                ",
"                                ",
"                .               ",
"                .               ",
"                .       .       ",
"        .              .        ",
"         .            .         ",
"          .   .....             ",
"             .     .            ",
"            .       .           ",
"           .         .          ",
"          .           .  ..     ",
"          .    .      . .       ",
"          .    ....   .         ",
"    ...   .       .   .         ",
"          .     ...   .         ",
"           .    .    .          ",
"            .   .   .    ..     ",
"             .  .  .       .    ",
"         .    . . .             ",
"        .     . . .             ",
"       .      .....             ",
"              .   .             ",
"              .....             ",
"              .   .             ",
"              .....             ",
"                                ",
"                                ",
"                                ",
"                                ",
"                                "
};